<?xml version="1.0" standalone="no"?>
<!DOCTYPE svg PUBLIC "-//W3C//DTD SVG 20010904//EN"
 "http://www.w3.org/TR/2001/REC-SVG-20010904/DTD/svg10.dtd">
<svg version="1.0" xmlns="http://www.w3.org/2000/svg"
 width="1987.000000pt" height="1987.000000pt" viewBox="0 0 1987.000000 1987.000000"
 preserveAspectRatio="xMidYMid meet">
<metadata>
Created by potrace 1.11, written by Peter Selinger 2001-2013
</metadata>
<g transform="translate(0.000000,1987.000000) scale(0.100000,-0.100000)"
fill="#000000" stroke="none">
<path d="M13340 16715 c0 -1540 4 -2435 10 -2435 11 0 14 -22 30 -180 64 -627
336 -1257 756 -1750 87 -102 292 -307 389 -387 363 -302 796 -523 1250 -638
261 -67 407 -86 700 -92 339 -7 545 14 842 87 1122 274 2030 1178 2323 2313
57 220 100 482 100 604 0 32 4 43 15 43 13 0 15 277 15 2435 l0 2435 -685 0
-685 0 0 -2397 c0 -1576 -4 -2429 -10 -2488 -104 -905 -819 -1602 -1708 -1664
-973 -68 -1828 641 -1957 1622 -13 104 -15 411 -15 2523 l0 2404 -685 0 -685
0 0 -2435z"/>
<path d="M3395 19132 c-6 -5 -57 -14 -115 -21 -354 -42 -713 -152 -1065 -326
-377 -187 -635 -373 -951 -689 -306 -306 -520 -599 -723 -987 -191 -368 -346
-830 -414 -1242 -13 -76 -28 -142 -33 -145 -15 -10 -39 -591 -25 -605 8 -8 11
-505 11 -1704 l0 -1693 685 0 685 0 0 1875 c0 2018 -2 1927 51 2172 92 425
297 857 559 1178 378 464 907 759 1459 815 63 6 447 10 997 10 l894 0 0 685 0
685 -1003 0 c-552 0 -1007 -4 -1012 -8z"/>
<path d="M6430 19029 c-199 -7 -282 -20 -358 -56 -98 -46 -130 -138 -98 -275
9 -37 240 -670 515 -1405 1412 -3785 1863 -4994 1961 -5255 119 -319 148 -370
245 -434 l54 -36 -23 -62 c-13 -33 -236 -596 -496 -1251 -259 -654 -476 -1211
-482 -1238 -21 -102 13 -177 104 -223 84 -43 165 -55 405 -61 470 -12 751 50
856 189 14 18 81 187 150 378 69 190 312 860 540 1490 228 630 642 1775 920
2545 278 770 818 2267 1201 3327 382 1060 703 1955 712 1990 22 84 23 194 1
234 -58 111 -206 145 -626 145 -443 -1 -567 -34 -636 -170 -10 -19 -128 -357
-262 -750 -767 -2247 -1138 -3331 -1409 -4125 -167 -489 -305 -891 -308 -894
-3 -2 -11 -2 -18 0 -7 3 -233 624 -502 1379 -880 2475 -1205 3388 -1353 3804
-80 226 -164 455 -186 510 -53 129 -97 175 -193 205 -122 37 -369 51 -714 39z"/>
<path d="M5181 8540 c-4 -8 -7 -1702 -7 -3765 1 -3490 2 -3752 18 -3774 53
-75 155 -96 453 -96 288 1 376 23 427 105 14 22 15 419 14 3785 l-1 3760 -448
0 c-393 1 -450 -1 -456 -15z"/>
<path d="M14758 8075 c-2 -1 -46 -5 -98 -8 -84 -5 -177 -19 -220 -35 -8 -2
-22 -6 -30 -8 -34 -6 -48 -11 -110 -34 -120 -45 -318 -152 -350 -189 -3 -4
-22 -18 -42 -34 -65 -48 -157 -146 -228 -242 -39 -51 -70 -97 -70 -101 0 -4
-6 -15 -13 -23 -27 -32 -122 -260 -112 -269 2 -3 0 -12 -5 -22 -22 -42 -46
-219 -44 -330 2 -140 9 -196 40 -322 1 -5 2 -9 4 -10 1 -2 3 -10 5 -18 10 -50
78 -206 119 -275 44 -75 83 -130 124 -172 12 -13 22 -27 22 -31 0 -10 110
-113 180 -167 119 -92 234 -158 373 -210 46 -17 67 -33 27 -20 -20 6 -20 3
-18 -2292 l3 -2298 485 0 485 0 2 2308 c0 1374 -3 2305 -8 2301 -5 -3 -9 0 -9
5 0 6 5 11 12 11 38 0 275 135 354 202 80 68 127 113 161 154 18 21 46 55 63
74 16 19 30 39 30 43 0 5 6 15 13 22 29 34 37 45 31 45 -4 0 0 8 9 18 37 42
135 279 140 340 1 12 5 22 10 22 4 0 6 4 3 9 -3 4 -1 23 4 42 6 19 13 88 16
154 3 66 7 126 9 133 3 6 0 12 -4 12 -5 0 -9 19 -10 43 0 23 -2 51 -4 62 -9
52 -19 101 -24 115 -3 8 -7 28 -9 44 -2 16 -9 35 -15 43 -6 7 -9 13 -6 13 4 0
-6 28 -20 63 -69 160 -154 295 -235 375 -16 14 -28 31 -29 37 0 10 -74 73
-178 153 -47 37 -194 125 -211 127 -3 1 -27 11 -55 24 -27 13 -59 27 -70 32
-25 10 -122 39 -155 45 -14 3 -41 9 -60 13 -19 5 -42 9 -50 10 -119 7 -198 12
-212 15 -9 2 -18 3 -20 1z m192 -574 c25 -7 62 -19 83 -26 20 -8 38 -14 40
-14 3 2 101 -44 107 -50 3 -4 17 -12 31 -19 37 -19 125 -96 162 -142 122 -149
176 -295 172 -470 -3 -114 -9 -160 -25 -190 -6 -11 -8 -20 -6 -20 18 0 -103
-219 -126 -228 -4 -2 -8 -8 -8 -13 0 -11 -63 -73 -110 -109 -18 -14 -39 -31
-47 -38 -7 -7 -13 -11 -13 -7 0 3 -12 -2 -27 -13 -38 -27 -157 -78 -203 -87
-49 -10 -104 -18 -140 -21 -25 -2 -49 -4 -55 -5 -23 -2 -156 10 -164 15 -4 3
-23 8 -41 11 -48 8 -190 65 -190 76 0 5 -6 9 -13 9 -44 0 -267 214 -267 256 0
7 -4 14 -8 16 -14 5 -51 95 -74 175 -27 101 -29 239 -3 343 10 41 22 78 27 81
6 3 8 8 7 10 -7 10 42 108 69 137 6 7 12 17 12 22 0 9 110 122 150 155 53 43
172 107 197 107 4 0 13 4 18 8 6 5 22 11 35 14 14 3 48 11 75 19 61 16 271 15
335 -2z m-536 -1960 c4 -5 -3 -7 -14 -4 -23 6 -26 13 -6 13 8 0 17 -4 20 -9z
m741 -1 c-3 -5 -12 -10 -18 -10 -7 0 -6 4 3 10 19 12 23 12 15 0z m-668 -16
c-3 -3 -12 -4 -19 -1 -8 3 -5 6 6 6 11 1 17 -2 13 -5z m48 -14 c3 -6 -1 -7 -9
-4 -18 7 -21 14 -7 14 6 0 13 -4 16 -10z m72 -6 c-3 -3 -12 -4 -19 -1 -8 3 -5
6 6 6 11 1 17 -2 13 -5z m363 2 c0 -3 -4 -8 -10 -11 -5 -3 -10 -1 -10 4 0 6 5
11 10 11 6 0 10 -2 10 -4z m-307 -13 c-7 -2 -19 -2 -25 0 -7 3 -2 5 12 5 14 0
19 -2 13 -5z m214 1 c-3 -3 -12 -4 -19 -1 -8 3 -5 6 6 6 11 1 17 -2 13 -5z
m40 0 c-3 -3 -12 -4 -19 -1 -8 3 -5 6 6 6 11 1 17 -2 13 -5z"/>
<path d="M7425 8050 c-101 -11 -154 -19 -200 -30 -22 -6 -49 -13 -59 -15 -42
-10 -122 -38 -133 -48 -7 -5 -13 -7 -13 -3 0 6 -165 -76 -230 -115 -163 -98
-346 -295 -454 -491 -51 -92 -107 -247 -110 -300 0 -10 -3 -18 -6 -18 -3 0 -7
-12 -8 -27 -1 -16 -6 -50 -11 -78 -8 -45 -7 -301 2 -350 30 -166 80 -310 149
-424 21 -34 38 -65 38 -67 0 -3 4 -10 10 -17 5 -7 36 -46 68 -87 138 -176 325
-315 544 -406 46 -18 77 -34 71 -34 -10 0 -13 -466 -13 -2298 l0 -2299 488 1
487 1 1 2308 c0 1950 -2 2307 -13 2302 -8 -2 -11 0 -8 5 3 6 11 10 17 10 18 0
218 102 218 111 0 5 6 9 13 9 7 0 23 9 35 20 12 12 22 17 22 13 0 -4 4 -3 8 2
4 6 30 28 57 50 64 51 162 149 200 200 17 22 33 42 36 45 27 22 179 300 164
300 -2 0 2 12 10 27 8 15 12 30 9 35 -3 4 0 8 6 8 6 0 8 4 5 10 -3 5 -1 18 4
28 6 11 12 32 15 48 3 16 8 42 12 58 3 16 8 45 9 65 2 20 4 38 5 41 1 3 2 59
2 125 0 116 -4 173 -16 225 -3 14 -8 36 -10 50 -2 14 -9 36 -14 50 -5 14 -10
28 -11 33 0 4 -2 9 -2 12 -1 3 -2 8 -3 13 -6 27 -31 91 -44 110 -8 12 -12 22
-8 22 3 0 -6 19 -20 43 -13 23 -31 57 -39 75 -9 17 -20 32 -25 32 -6 0 -10 5
-10 11 0 12 -49 84 -79 116 -12 12 -21 26 -21 32 0 5 -4 11 -9 13 -5 2 -47 40
-95 85 -47 45 -123 106 -169 137 -78 51 -244 137 -275 142 -8 1 -21 6 -30 10
-21 9 -21 9 -114 34 -43 11 -81 20 -85 19 -4 -1 -11 0 -15 1 -56 18 -262 30
-353 20z m250 -563 c196 -50 296 -102 411 -214 143 -140 216 -309 215 -501 0
-98 -1 -106 -15 -177 -11 -52 -76 -193 -112 -242 -118 -158 -302 -277 -480
-308 -146 -26 -376 -4 -466 46 -10 5 -22 9 -27 9 -19 0 -124 69 -185 122 -35
29 -84 80 -109 113 -50 65 -113 191 -122 245 -3 18 -9 38 -12 43 -15 24 -9
233 8 297 29 108 42 144 61 172 10 14 18 31 18 37 0 6 4 11 9 11 5 0 12 8 15
18 8 24 81 109 128 148 36 31 138 96 178 116 51 23 120 49 120 43 0 -2 12 0
26 5 15 6 42 12 62 15 19 2 36 6 38 8 5 5 216 -1 239 -6z m305 -1947 c-8 -5
-19 -10 -25 -10 -5 0 -3 5 5 10 8 5 20 10 25 10 6 0 3 -5 -5 -10z m-853 -6
c-3 -3 -12 -4 -19 -1 -8 3 -5 6 6 6 11 1 17 -2 13 -5z m48 -14 c13 -6 15 -9 5
-9 -8 0 -22 4 -30 9 -18 12 -2 12 25 0z m755 6 c0 -2 -9 -6 -20 -9 -11 -3 -18
-1 -14 4 5 9 34 13 34 5z m-643 -32 c-3 -3 -12 -4 -19 -1 -8 3 -5 6 6 6 11 1
17 -2 13 -5z m520 0 c-3 -3 -12 -4 -19 -1 -8 3 -5 6 6 6 11 1 17 -2 13 -5z
m-480 -10 c-3 -3 -12 -4 -19 -1 -8 3 -5 6 6 6 11 1 17 -2 13 -5z m388 -4 c3
-6 -1 -7 -9 -4 -18 7 -21 14 -7 14 6 0 13 -4 16 -10z m52 4 c-3 -3 -12 -4 -19
-1 -8 3 -5 6 6 6 11 1 17 -2 13 -5z m-257 -9 c0 -7 -39 -12 -49 -5 -7 4 1 7
18 8 17 0 31 -1 31 -3z m99 -5 c-6 -5 -18 -6 -26 -3 -19 8 -16 11 13 11 17 0
22 -3 13 -8z"/>
<path d="M11059 6586 c-2 -2 -45 -6 -96 -10 -51 -3 -114 -10 -140 -16 -26 -5
-64 -12 -84 -14 -20 -3 -47 -10 -60 -15 -13 -5 -27 -9 -31 -10 -5 0 -9 -1 -10
-2 -2 0 -16 -3 -31 -5 -93 -16 -406 -141 -510 -205 -26 -16 -50 -29 -53 -29
-3 0 -25 -13 -49 -30 -24 -16 -46 -30 -49 -30 -3 0 -14 -6 -23 -14 -10 -8 -54
-41 -98 -74 -183 -135 -346 -302 -487 -498 -36 -50 -73 -104 -82 -120 -9 -16
-26 -45 -38 -64 -76 -127 -195 -397 -190 -430 0 -3 -3 -9 -7 -15 -5 -5 -12
-23 -16 -40 -5 -16 -9 -32 -10 -35 -14 -46 -28 -100 -31 -120 -3 -14 -7 -32
-9 -40 -3 -8 -7 -33 -11 -55 -3 -22 -9 -58 -14 -80 -5 -22 -12 -80 -15 -130
-4 -49 -11 -93 -17 -96 -6 -4 -10 -652 -10 -1735 l-1 -1729 489 0 488 0 3
1745 c2 960 4 1757 6 1773 1 15 6 27 10 27 5 0 6 4 3 8 -7 11 27 151 54 227
36 97 134 292 160 315 3 3 24 30 46 60 50 67 142 161 209 215 28 21 55 44 60
49 6 6 22 18 35 26 127 74 183 103 230 120 30 11 64 25 75 30 18 8 88 29 125
36 98 21 159 30 175 28 11 -2 27 -1 35 2 15 6 104 6 210 -1 124 -7 296 -54
429 -117 89 -42 223 -124 229 -139 2 -5 7 -9 11 -9 17 0 221 -192 221 -208 0
-4 18 -27 40 -52 22 -25 40 -49 40 -53 0 -5 13 -27 29 -50 35 -52 111 -210
113 -237 0 -3 4 -12 9 -21 17 -33 55 -193 66 -284 3 -22 6 -814 7 -1760 2
-946 4 -1723 4 -1726 1 -3 219 -5 485 -5 l482 1 3 1733 c1 952 -2 1732 -6
1732 -4 0 -9 18 -10 39 -2 21 -4 52 -7 67 -2 16 -6 52 -10 79 -8 62 -31 187
-45 240 -6 22 -13 48 -15 58 -7 33 -65 211 -75 232 -5 11 -27 61 -49 110 -22
50 -52 113 -68 141 -54 99 -97 169 -105 172 -4 2 -8 9 -8 15 0 7 -10 25 -23
40 -12 15 -42 55 -67 88 -25 34 -62 79 -82 101 -21 22 -38 43 -38 45 0 13
-230 228 -281 263 -12 8 -27 20 -33 26 -37 35 -239 162 -338 213 -107 54 -288
130 -313 131 -3 0 -20 6 -39 14 -19 8 -37 12 -40 8 -3 -3 -6 0 -6 7 0 7 -4 10
-10 6 -5 -3 -25 1 -44 9 -19 8 -36 12 -39 10 -2 -3 -15 0 -29 5 -14 5 -42 12
-64 15 -21 3 -62 11 -90 17 -28 5 -55 9 -60 8 -5 -1 -11 0 -14 1 -17 8 -393
23 -401 16z"/>
<path d="M2204 6351 c-2 -3 -30 -5 -62 -6 -31 -1 -88 -6 -127 -10 -38 -5 -78
-10 -87 -11 -10 -1 -19 -2 -20 -4 -2 -1 -12 -3 -23 -4 -18 -2 -38 -6 -113 -20
-12 -3 -50 -12 -85 -21 -34 -9 -71 -19 -82 -21 -41 -10 -45 -11 -207 -75 -129
-51 -238 -106 -342 -175 -32 -22 -67 -43 -77 -49 -11 -5 -19 -13 -19 -17 0 -5
-4 -8 -10 -8 -6 0 -18 -8 -28 -17 -11 -10 -43 -38 -72 -63 -77 -65 -168 -156
-225 -225 -28 -33 -53 -62 -56 -65 -13 -11 -137 -199 -175 -265 -78 -139 -195
-404 -208 -472 -3 -11 -11 -34 -20 -51 -8 -16 -13 -32 -10 -35 3 -3 1 -14 -5
-25 -6 -11 -14 -38 -17 -59 -3 -21 -9 -45 -13 -53 -4 -8 -13 -40 -19 -70 -7
-30 -19 -85 -27 -123 -8 -37 -14 -71 -14 -75 1 -4 0 -9 -1 -12 -3 -7 -7 -37
-14 -97 -3 -29 -8 -65 -10 -80 -22 -145 -29 -274 -29 -593 0 -278 5 -419 18
-500 3 -19 7 -60 10 -90 15 -160 101 -566 127 -597 6 -7 8 -13 4 -13 -3 0 10
-44 30 -97 19 -54 36 -102 38 -108 1 -5 11 -28 21 -50 11 -22 20 -42 20 -45 1
-19 127 -249 171 -313 30 -43 54 -83 54 -88 0 -5 4 -9 8 -9 4 0 15 -12 25 -27
40 -67 242 -272 332 -338 22 -16 42 -32 45 -35 23 -27 256 -158 360 -203 76
-32 232 -86 253 -87 1 0 25 -6 52 -14 28 -8 61 -17 75 -20 14 -3 36 -7 50 -10
13 -3 42 -8 65 -11 22 -3 51 -8 65 -10 14 -3 48 -8 75 -11 62 -8 567 -14 579
-7 4 3 27 7 50 9 22 2 57 6 76 9 19 3 52 8 73 10 21 3 42 7 46 10 5 2 26 7 47
10 22 3 50 10 64 15 14 5 36 11 50 14 14 2 59 14 100 27 41 12 84 24 94 26 11
2 25 8 33 14 7 6 13 8 13 4 0 -4 6 -2 13 4 8 6 22 12 33 14 34 6 325 144 373
176 14 10 53 35 86 57 33 21 66 45 73 51 7 7 17 13 21 13 11 0 131 118 131
130 0 5 4 10 8 10 10 0 39 60 59 120 20 63 29 341 14 455 -29 223 -87 278
-222 209 -26 -13 -53 -29 -60 -36 -8 -7 -52 -42 -99 -78 -47 -35 -86 -68 -88
-72 -2 -4 -9 -8 -15 -8 -7 0 -24 -11 -39 -25 -15 -14 -29 -25 -32 -25 -9 0
-101 -64 -104 -73 -2 -4 -8 -5 -13 -1 -5 3 -9 1 -9 -4 0 -6 -26 -23 -57 -40
-32 -16 -80 -42 -108 -57 -117 -63 -309 -137 -392 -151 -15 -3 -35 -7 -44 -10
-44 -13 -130 -18 -304 -19 -193 0 -240 4 -355 30 -90 21 -90 21 -140 40 -179
67 -291 137 -415 260 -112 111 -187 217 -261 371 -38 80 -103 241 -104 262 0
4 -9 36 -20 72 -18 61 -42 172 -55 250 -3 19 -8 49 -11 65 -5 28 -9 61 -19
145 -18 154 -24 588 -10 770 4 52 9 113 10 135 2 22 4 40 5 40 1 0 3 18 5 40
2 22 6 54 9 70 4 17 9 46 12 65 2 19 9 59 15 87 6 29 11 56 11 60 0 5 4 18 9
31 5 13 11 36 14 53 7 38 73 236 91 271 8 15 15 31 15 35 2 23 108 212 155
279 75 103 110 142 214 233 44 39 182 133 200 136 3 1 22 9 43 18 20 9 38 16
40 15 1 -1 13 4 26 11 26 14 138 48 186 57 17 2 37 7 45 9 32 10 151 17 270
17 149 0 213 -5 330 -27 68 -13 170 -42 220 -62 8 -4 17 -7 20 -8 3 -1 19 -7
35 -14 17 -7 30 -12 30 -11 0 3 227 -115 270 -140 22 -13 48 -30 58 -38 9 -9
25 -20 36 -26 45 -27 103 -69 191 -140 107 -86 165 -117 220 -118 43 0 100 26
100 47 0 8 5 15 11 15 19 0 39 62 59 180 10 64 2 395 -10 395 -1 0 -3 7 -5 16
-9 46 -62 133 -114 185 -81 82 -101 98 -205 165 -50 32 -96 63 -103 69 -7 5
-14 10 -17 10 -3 0 -50 22 -106 49 -55 27 -100 47 -100 44 0 -3 -6 -1 -12 4
-14 11 -189 73 -225 79 -12 2 -34 9 -48 14 -14 5 -25 8 -25 5 0 -2 -18 2 -40
10 -22 8 -42 14 -45 15 -3 0 -6 0 -7 1 -2 0 -12 2 -23 3 -11 1 -38 6 -60 11
-22 4 -51 9 -65 10 -14 1 -45 5 -69 9 -76 14 -427 27 -437 17z"/>
<path d="M18020 6218 c-36 -4 -85 -10 -110 -12 -25 -3 -47 -5 -50 -6 -3 -1
-13 -2 -22 -1 -10 1 -18 -1 -18 -6 0 -4 -12 -8 -27 -9 -37 -1 -90 -10 -131
-23 -18 -5 -35 -10 -37 -10 -3 -1 -6 -1 -7 -2 -2 0 -10 -2 -18 -4 -113 -22
-381 -123 -461 -173 -20 -12 -40 -22 -44 -22 -11 0 -180 -111 -183 -121 -2 -5
-8 -7 -13 -3 -5 3 -12 -2 -15 -10 -3 -9 -10 -13 -15 -10 -5 3 -9 1 -9 -4 0 -5
-17 -21 -38 -34 -32 -22 -258 -241 -287 -280 -5 -7 -26 -33 -46 -58 -82 -104
-150 -213 -226 -365 -30 -60 -61 -121 -68 -135 -7 -14 -13 -27 -13 -30 -1 -3
-6 -18 -13 -35 -35 -88 -53 -139 -80 -225 -16 -52 -33 -108 -39 -125 -5 -16
-12 -41 -15 -55 -26 -124 -37 -177 -51 -255 -9 -49 -17 -106 -19 -125 -10 -85
-16 -137 -20 -165 -18 -110 -25 -630 -12 -825 8 -123 23 -278 31 -320 2 -14
10 -59 16 -100 10 -61 28 -152 55 -270 1 -8 9 -35 16 -60 7 -25 13 -49 15 -55
17 -77 97 -289 159 -421 39 -83 159 -292 174 -304 4 -3 23 -29 44 -58 53 -74
79 -105 182 -207 85 -86 157 -149 194 -169 9 -5 18 -12 21 -16 11 -15 158
-104 250 -152 98 -50 305 -128 376 -142 10 -2 46 -11 79 -19 61 -16 99 -23
170 -32 22 -3 51 -8 65 -11 57 -13 177 -18 375 -16 232 1 295 4 295 12 0 3 15
5 33 6 58 2 117 9 117 14 0 5 18 7 88 13 12 1 22 5 22 9 0 5 3 7 8 6 4 -1 21
1 37 5 17 4 39 9 51 11 12 3 54 15 95 27 41 13 76 23 79 24 16 3 120 41 150
53 19 9 37 16 40 17 18 4 227 106 265 128 11 7 39 24 62 40 23 15 46 27 52 27
6 0 11 4 11 9 0 5 8 12 19 16 10 3 28 13 39 23 11 9 37 31 58 47 21 17 48 41
61 55 13 14 32 34 43 45 30 31 71 130 78 188 9 69 7 421 -2 472 -4 22 -18 64
-31 93 -37 82 -101 99 -185 50 -30 -17 -255 -183 -270 -198 -3 -3 -39 -28 -80
-55 -41 -28 -77 -53 -80 -56 -6 -6 -142 -86 -180 -105 -72 -36 -223 -104 -240
-109 -3 0 -36 -10 -75 -22 -148 -45 -246 -58 -435 -58 -157 0 -250 6 -257 18
-2 4 -8 5 -13 2 -24 -15 -252 55 -365 113 -251 128 -427 323 -566 627 -12 28
-24 55 -25 60 -1 6 -14 38 -27 72 -14 35 -24 63 -22 63 3 0 0 12 -6 27 -10 25
-33 112 -44 166 -2 10 -7 27 -10 37 -3 10 -7 31 -9 46 -2 16 -9 58 -16 94 -7
36 -14 85 -16 110 -2 25 -6 61 -9 80 -22 134 -22 692 0 868 4 31 8 73 10 92 2
19 12 87 24 150 26 146 26 146 42 200 7 25 12 49 11 53 -1 4 5 21 13 37 9 17
13 30 11 30 -4 0 31 102 62 180 18 46 72 154 97 195 14 22 29 49 34 60 5 12
16 27 25 34 9 7 16 19 16 26 0 8 3 15 8 17 4 2 25 25 47 52 106 130 225 226
380 304 60 30 208 80 255 87 14 2 46 8 72 14 40 9 241 25 273 22 6 0 44 -3 85
-5 73 -3 165 -14 205 -23 11 -2 31 -6 45 -9 37 -6 51 -9 100 -24 25 -7 50 -15
55 -16 26 -7 160 -66 172 -76 7 -6 13 -7 13 -4 0 16 313 -162 340 -193 3 -3
28 -22 55 -40 28 -19 52 -38 55 -41 3 -3 29 -23 58 -44 28 -21 52 -42 52 -47
0 -6 5 -7 10 -4 6 3 10 2 10 -3 0 -20 94 -57 146 -57 44 0 57 5 83 29 31 30
67 103 77 158 9 46 9 387 0 423 -19 84 -50 149 -93 195 -12 14 -34 37 -47 53
-14 15 -30 27 -35 27 -6 0 -15 9 -21 20 -6 11 -15 20 -20 20 -9 0 -18 6 -72
53 -12 9 -25 17 -29 17 -4 0 -14 6 -21 13 -12 11 -39 27 -103 61 -11 6 -22 13
-25 17 -5 5 -28 16 -120 57 -99 44 -140 61 -140 55 0 -3 -6 -1 -12 5 -12 9
-203 68 -251 78 -10 2 -27 6 -37 9 -10 3 -33 8 -51 10 -19 3 -47 8 -64 13 -16
5 -40 8 -52 7 -13 -1 -23 2 -23 7 0 5 -4 7 -9 4 -4 -3 -37 -1 -72 5 -77 13
-427 17 -519 7z"/>
</g>
</svg>
